<?xml version="1.0" encoding="UTF-8"?>
<svg version="1.1" xmlns="http://www.w3.org/2000/svg" width="288" height="288">
<path d="M0 0 C95.04 0 190.08 0 288 0 C288 95.04 288 190.08 288 288 C192.96 288 97.92 288 0 288 C0 192.96 0 97.92 0 0 Z " fill="#FDCE30" transform="translate(0,0)"/>
<path d="M0 0 C8.25 0 16.5 0 25 0 C25.515625 1.711875 26.03125 3.42375 26.5625 5.1875 C28.52670038 11.56761849 30.58942584 17.91270696 32.6875 24.25 C32.99695557 25.19125732 33.30641113 26.13251465 33.62524414 27.10229492 C33.91778076 27.98119385 34.21031738 28.86009277 34.51171875 29.765625 C34.90556763 30.95333496 34.90556763 30.95333496 35.30737305 32.16503906 C35.85209135 33.98937103 35.85209135 33.98937103 37 35 C37.29245605 34.08186523 37.58491211 33.16373047 37.88623047 32.21777344 C38.97506182 28.8024911 40.0681878 25.38859607 41.16259766 21.97509766 C41.6351201 20.49923421 42.10648655 19.02300013 42.57666016 17.54638672 C43.25377634 15.42055683 43.93507714 13.29610691 44.6171875 11.171875 C44.82560272 10.51443298 45.03401794 9.85699097 45.24874878 9.17962646 C46.29635319 5.93118265 47.46442622 3.07114757 49 0 C57.25 0 65.5 0 74 0 C74.88268238 2.64804713 75.76470802 5.29631403 76.64453125 7.9453125 C77.69201933 11.09020712 78.75671813 14.22903266 79.82421875 17.3671875 C80.46616481 19.26561858 81.10809181 21.16405611 81.75 23.0625 C82.06783447 23.9908667 82.38566895 24.9192334 82.71313477 25.87573242 C83.15677368 27.19214722 83.15677368 27.19214722 83.609375 28.53515625 C83.87717773 29.322854 84.14498047 30.11055176 84.42089844 30.92211914 C85 33 85 33 85 36 C85.66 36 86.32 36 87 36 C87.23460938 34.80503906 87.46921875 33.61007813 87.7109375 32.37890625 C89.18570075 25.74247162 91.4380167 19.36620101 93.625 12.9375 C95.06875 8.668125 96.5125 4.39875 98 0 C114.5 0 131 0 148 0 C148 7.26 148 14.52 148 22 C137.11 22 126.22 22 115 22 C114.01 26.455 114.01 26.455 113 31 C112.52642827 32.66530749 112.02791817 34.3240674 111.48779297 35.96899414 C111.2076535 36.8292067 110.92751404 37.68941925 110.6388855 38.57569885 C110.34297516 39.46981979 110.04706482 40.36394073 109.7421875 41.28515625 C109.43427277 42.22685165 109.12635803 43.16854706 108.80911255 44.13877869 C107.83505379 47.11467429 106.85513124 50.08859958 105.875 53.0625 C105.20924523 55.09297106 104.54387686 57.12356887 103.87890625 59.15429688 C102.25778065 64.10459187 100.62872161 69.05217339 99 74 C90.42 74 81.84 74 73 74 C71.42923936 69.35656637 69.8612624 64.71238154 68.30029297 60.06567383 C67.76838764 58.4850485 67.23486836 56.90496535 66.69970703 55.32543945 C65.93097263 53.05560495 65.16805428 50.78388706 64.40625 48.51171875 C64.16563843 47.80536789 63.92502686 47.09901703 63.67712402 46.3712616 C62.70411908 43.45324788 62 41.0986998 62 38 C61.34 38 60.68 38 60 38 C59.85691406 39.40958984 59.85691406 39.40958984 59.7109375 40.84765625 C58.98584102 45.90679434 57.28220977 50.6199501 55.625 55.4375 C55.32078125 56.34048828 55.0165625 57.24347656 54.703125 58.17382812 C52.89997528 63.49466095 50.97459151 68.73442263 49 74 C40.75 74 32.5 74 24 74 C17.42718467 54.96077976 10.89896123 35.91069017 4.6875 16.75 C4.44744232 16.01267639 4.20738464 15.27535278 3.96005249 14.51568604 C3.28634317 12.44383878 2.61691239 10.37066765 1.94921875 8.296875 C1.57112061 7.12479492 1.19302246 5.95271484 0.8034668 4.74511719 C0 2 0 2 0 0 Z " fill="#42413C" transform="translate(17,108)"/>
<path d="M0 0 C7.92 0 15.84 0 24 0 C24 16.5 24 33 24 50 C32.25 50 40.5 50 49 50 C49 57.92 49 65.84 49 74 C32.83 74 16.66 74 0 74 C0 49.58 0 25.16 0 0 Z " fill="#3F3F3D" transform="translate(220,108)"/>
<path d="M0 0 C7.92 0 15.84 0 24 0 C24 16.5 24 33 24 50 C32.25 50 40.5 50 49 50 C49 57.92 49 65.84 49 74 C32.83 74 16.66 74 0 74 C0 49.58 0 25.16 0 0 Z " fill="#3F3F3D" transform="translate(168,108)"/>
<path d="M0 0 C8.25 0 16.5 0 25 0 C25 16.17 25 32.34 25 49 C16.75 49 8.5 49 0 49 C0 32.83 0 16.66 0 0 Z " fill="#42423C" transform="translate(140,133)"/>
<path d="M0 0 C10.89 0 21.78 0 33 0 C33 0.99 33 1.98 33 3 C24.75 3 16.5 3 8 3 C8 19.17 8 35.34 8 52 C0.08 52 -7.84 52 -16 52 C-14.875 44.125 -14.875 44.125 -13.50952148 40.07446289 C-13.20928574 39.17405777 -12.90904999 38.27365265 -12.59971619 37.34596252 C-12.11529808 35.92367592 -12.11529808 35.92367592 -11.62109375 34.47265625 C-11.28956802 33.48373886 -10.9580423 32.49482147 -10.61647034 31.47593689 C-9.56246061 28.33619181 -8.50011455 25.199342 -7.4375 22.0625 C-6.71884779 19.92661836 -6.00074284 17.79055251 -5.28320312 15.65429688 C-3.52947799 10.43367004 -1.76449533 5.21704575 0 0 Z " fill="#E4E6E7" transform="translate(132,130)"/>
<path d="M0 0 C0.66 0 1.32 0 2 0 C2.33 1.32 2.66 2.64 3 4 C3.66 4 4.32 4 5 4 C4.67 4.99 4.34 5.98 4 7 C2.68 7 1.36 7 0 7 C0 4.69 0 2.38 0 0 Z " fill="#968537" transform="translate(260,109)"/>
</svg>
